<svg xmlns="http://www.w3.org/2000/svg" width="18" height="18" viewBox="0 0 18 18">
    <defs>
        <clipPath id="o95e33552a">
            <path data-name="Rectangle 8165" style="fill:#888" d="M0 0h12.629v11.994H0z"/>
        </clipPath>
    </defs>
    <path data-name="Rectangle 7616" style="fill:none" d="M0 0h18v18H0z"/>
    <g data-name="Group 50681">
        <g data-name="Group 50680" transform="translate(3 3.001)" style="clip-path:url(#o95e33552a)">
            <path data-name="Path 19025" d="M6.632 11.994a5.985 5.985 0 0 1-2.894-.744l-2.238.673a1.165 1.165 0 0 1-1.361-1.667l1-1.857A5.927 5.927 0 0 1 .636 6a6 6 0 1 1 6 6M3.92 9.805l.255.159a4.665 4.665 0 1 0-1.7-1.848l.159.31L1.5 10.533z" style="fill:#888"/>
        </g>
    </g>
</svg>
