<svg data-name="IC_Add to Wishlist _size 2" xmlns="http://www.w3.org/2000/svg" width="18" height="18" viewBox="0 0 18 18">
    <path data-name="Rectangle 7616" style="fill:none" d="M0 0h18v18H0z"/>
    <path data-name="Path 2068" d="M11.877 32.816a3.9 3.9 0 0 0-5.244.389 3.9 3.9 0 0 0-5.244-.389 3.92 3.92 0 0 0-.275 5.731l4.545 4.63a1.361 1.361 0 0 0 1.948 0l4.545-4.63a3.923 3.923 0 0 0-.275-5.731zm-.611 4.858L6.721 42.3a.107.107 0 0 1-.176 0L2 37.674a2.672 2.672 0 0 1 .189-3.9 2.627 2.627 0 0 1 3.537.272l.907.925.907-.925a2.625 2.625 0 0 1 3.537-.275 2.683 2.683 0 0 1 .189 3.907z" transform="translate(2.211 -29.031)" style="fill:#888"/>
</svg>
